<svg xmlns="http://www.w3.org/2000/svg" xmlns:xlink="http://www.w3.org/1999/xlink" width="188" zoomAndPan="magnify" viewBox="0 0 141 30.000001" height="40" preserveAspectRatio="xMidYMid meet" version="1.0"><defs><g/><clipPath id="c755e4633f"><path d="M 14.792969 7 L 28 7 L 28 23.292969 L 14.792969 23.292969 Z M 14.792969 7 " clip-rule="nonzero"/></clipPath><clipPath id="2a82b522e7"><path d="M 26 5.871094 L 34.390625 5.871094 L 34.390625 23.292969 L 26 23.292969 Z M 26 5.871094 " clip-rule="nonzero"/></clipPath></defs><g fill="#d32f23" fill-opacity="0.4196"><g transform="translate(35.437998, 21.162623)"><g><path d="M 9.96875 -4.484375 C 9.8125 -3.046875 9.269531 -1.9375 8.34375 -1.15625 C 7.425781 -0.382812 6.300781 0 4.96875 0 L 0.796875 0 C 0.722656 0 0.660156 -0.0234375 0.609375 -0.078125 C 0.566406 -0.128906 0.550781 -0.195312 0.5625 -0.28125 L 2.46875 -15.6875 C 2.476562 -15.757812 2.507812 -15.820312 2.5625 -15.875 C 2.613281 -15.925781 2.679688 -15.953125 2.765625 -15.953125 L 6.453125 -15.953125 C 7.785156 -15.953125 8.820312 -15.648438 9.5625 -15.046875 C 10.300781 -14.453125 10.671875 -13.5625 10.671875 -12.375 C 10.671875 -12.226562 10.65625 -11.972656 10.625 -11.609375 C 10.4375 -10.117188 9.796875 -9.023438 8.703125 -8.328125 C 8.648438 -8.273438 8.644531 -8.226562 8.6875 -8.1875 C 9.570312 -7.488281 10.015625 -6.492188 10.015625 -5.203125 C 10.015625 -5.066406 10 -4.828125 9.96875 -4.484375 Z M 5.375 -13.203125 C 5.300781 -13.203125 5.265625 -13.160156 5.265625 -13.078125 L 4.8125 -9.5 C 4.8125 -9.425781 4.84375 -9.390625 4.90625 -9.390625 L 5.703125 -9.390625 C 6.273438 -9.390625 6.722656 -9.59375 7.046875 -10 C 7.378906 -10.414062 7.546875 -10.988281 7.546875 -11.71875 C 7.546875 -12.207031 7.425781 -12.578125 7.1875 -12.828125 C 6.957031 -13.078125 6.617188 -13.203125 6.171875 -13.203125 Z M 5.078125 -2.78125 C 5.566406 -2.78125 5.96875 -2.960938 6.28125 -3.328125 C 6.601562 -3.691406 6.8125 -4.207031 6.90625 -4.875 C 6.925781 -4.976562 6.9375 -5.140625 6.9375 -5.359375 C 6.9375 -5.890625 6.820312 -6.304688 6.59375 -6.609375 C 6.363281 -6.910156 6.039062 -7.0625 5.625 -7.0625 L 4.625 -7.0625 C 4.5625 -7.0625 4.515625 -7.023438 4.484375 -6.953125 L 4.015625 -2.890625 C 3.984375 -2.816406 4.015625 -2.78125 4.109375 -2.78125 Z M 5.078125 -2.78125 "/></g></g></g><g fill="#d32f23" fill-opacity="0.4196"><g transform="translate(45.828668, 21.162623)"><g><path d="M 10.296875 -13.46875 C 10.285156 -13.394531 10.253906 -13.332031 10.203125 -13.28125 C 10.148438 -13.226562 10.085938 -13.203125 10.015625 -13.203125 L 5.375 -13.203125 C 5.300781 -13.203125 5.265625 -13.160156 5.265625 -13.078125 L 4.8125 -9.484375 C 4.8125 -9.410156 4.84375 -9.375 4.90625 -9.375 L 7.5625 -9.375 C 7.644531 -9.375 7.707031 -9.34375 7.75 -9.28125 C 7.789062 -9.226562 7.804688 -9.164062 7.796875 -9.09375 L 7.515625 -6.890625 C 7.503906 -6.804688 7.472656 -6.738281 7.421875 -6.6875 C 7.367188 -6.632812 7.304688 -6.609375 7.234375 -6.609375 L 4.578125 -6.609375 C 4.492188 -6.609375 4.453125 -6.570312 4.453125 -6.5 L 4.015625 -2.875 C 3.984375 -2.800781 4.015625 -2.765625 4.109375 -2.765625 L 8.703125 -2.765625 C 8.785156 -2.765625 8.851562 -2.734375 8.90625 -2.671875 C 8.957031 -2.617188 8.972656 -2.554688 8.953125 -2.484375 L 8.6875 -0.28125 C 8.664062 -0.195312 8.628906 -0.128906 8.578125 -0.078125 C 8.523438 -0.0234375 8.460938 0 8.390625 0 L 0.796875 0 C 0.722656 0 0.660156 -0.0234375 0.609375 -0.078125 C 0.566406 -0.128906 0.550781 -0.195312 0.5625 -0.28125 L 2.46875 -15.6875 C 2.476562 -15.757812 2.507812 -15.820312 2.5625 -15.875 C 2.613281 -15.925781 2.679688 -15.953125 2.765625 -15.953125 L 10.34375 -15.953125 C 10.425781 -15.953125 10.488281 -15.925781 10.53125 -15.875 C 10.570312 -15.820312 10.585938 -15.757812 10.578125 -15.6875 Z M 10.296875 -13.46875 "/></g></g></g><g fill="#d32f23" fill-opacity="0.4196"><g transform="translate(55.512949, 21.162623)"><g><path d="M 0.796875 0 C 0.722656 0 0.660156 -0.0234375 0.609375 -0.078125 C 0.566406 -0.128906 0.550781 -0.195312 0.5625 -0.28125 L 2.46875 -15.6875 C 2.476562 -15.757812 2.507812 -15.820312 2.5625 -15.875 C 2.613281 -15.925781 2.679688 -15.953125 2.765625 -15.953125 L 5.328125 -15.953125 C 5.492188 -15.953125 5.578125 -15.863281 5.578125 -15.6875 L 4.875 -9.9375 C 4.863281 -9.875 4.875 -9.835938 4.90625 -9.828125 C 4.945312 -9.828125 4.976562 -9.859375 5 -9.921875 L 8.578125 -15.75 C 8.648438 -15.882812 8.757812 -15.953125 8.90625 -15.953125 L 11.65625 -15.953125 C 11.757812 -15.953125 11.828125 -15.925781 11.859375 -15.875 C 11.890625 -15.820312 11.875 -15.742188 11.8125 -15.640625 L 7.734375 -9.078125 C 7.710938 -9.054688 7.695312 -9.035156 7.6875 -9.015625 C 7.6875 -8.992188 7.6875 -8.96875 7.6875 -8.9375 L 10.09375 -0.3125 L 10.125 -0.234375 C 10.125 -0.078125 10.039062 0 9.875 0 L 7.09375 0 C 6.9375 0 6.84375 -0.0664062 6.8125 -0.203125 L 5.25 -6.171875 C 5.25 -6.222656 5.226562 -6.242188 5.1875 -6.234375 C 5.144531 -6.222656 5.109375 -6.203125 5.078125 -6.171875 L 4.3125 -5 C 4.289062 -4.976562 4.269531 -4.957031 4.25 -4.9375 C 4.238281 -4.914062 4.234375 -4.890625 4.234375 -4.859375 L 3.6875 -0.28125 C 3.675781 -0.195312 3.640625 -0.128906 3.578125 -0.078125 C 3.515625 -0.0234375 3.445312 0 3.375 0 Z M 0.796875 0 "/></g></g></g><g fill="#d32f23" fill-opacity="0.4196"><g transform="translate(66.359339, 21.162623)"><g><path d="M 4.484375 0.1875 C 3.316406 0.1875 2.382812 -0.140625 1.6875 -0.796875 C 1 -1.453125 0.65625 -2.3125 0.65625 -3.375 C 0.65625 -3.507812 0.671875 -3.710938 0.703125 -3.984375 L 0.796875 -4.65625 C 0.816406 -4.726562 0.851562 -4.789062 0.90625 -4.84375 C 0.957031 -4.894531 1.019531 -4.921875 1.09375 -4.921875 L 3.625 -4.921875 C 3.789062 -4.921875 3.875 -4.832031 3.875 -4.65625 L 3.8125 -4.15625 C 3.789062 -4.09375 3.78125 -4 3.78125 -3.875 C 3.78125 -3.476562 3.878906 -3.160156 4.078125 -2.921875 C 4.273438 -2.691406 4.535156 -2.578125 4.859375 -2.578125 C 5.253906 -2.578125 5.59375 -2.738281 5.875 -3.0625 C 6.15625 -3.394531 6.296875 -3.800781 6.296875 -4.28125 C 6.296875 -4.675781 6.164062 -5.023438 5.90625 -5.328125 C 5.644531 -5.640625 5.148438 -6.085938 4.421875 -6.671875 C 3.816406 -7.160156 3.320312 -7.597656 2.9375 -7.984375 C 2.5625 -8.378906 2.238281 -8.84375 1.96875 -9.375 C 1.707031 -9.914062 1.578125 -10.535156 1.578125 -11.234375 C 1.578125 -12.191406 1.785156 -13.039062 2.203125 -13.78125 C 2.617188 -14.53125 3.191406 -15.109375 3.921875 -15.515625 C 4.660156 -15.929688 5.488281 -16.140625 6.40625 -16.140625 C 7.570312 -16.140625 8.5 -15.800781 9.1875 -15.125 C 9.882812 -14.445312 10.234375 -13.546875 10.234375 -12.421875 C 10.234375 -12.285156 10.21875 -12.066406 10.1875 -11.765625 L 10.125 -11.21875 C 10.101562 -11.144531 10.0625 -11.078125 10 -11.015625 C 9.945312 -10.960938 9.878906 -10.9375 9.796875 -10.9375 L 7.265625 -10.9375 C 7.191406 -10.9375 7.128906 -10.960938 7.078125 -11.015625 C 7.035156 -11.078125 7.023438 -11.144531 7.046875 -11.21875 L 7.109375 -11.828125 C 7.128906 -11.890625 7.140625 -11.988281 7.140625 -12.125 C 7.140625 -12.507812 7.039062 -12.8125 6.84375 -13.03125 C 6.65625 -13.257812 6.394531 -13.375 6.0625 -13.375 C 5.664062 -13.375 5.332031 -13.210938 5.0625 -12.890625 C 4.800781 -12.566406 4.671875 -12.128906 4.671875 -11.578125 C 4.671875 -11.210938 4.796875 -10.863281 5.046875 -10.53125 C 5.296875 -10.207031 5.753906 -9.765625 6.421875 -9.203125 C 7.179688 -8.566406 7.753906 -8.054688 8.140625 -7.671875 C 8.535156 -7.285156 8.847656 -6.863281 9.078125 -6.40625 C 9.304688 -5.945312 9.421875 -5.421875 9.421875 -4.828125 C 9.421875 -4.710938 9.40625 -4.5 9.375 -4.1875 C 9.207031 -2.851562 8.671875 -1.789062 7.765625 -1 C 6.867188 -0.207031 5.773438 0.1875 4.484375 0.1875 Z M 4.484375 0.1875 "/></g></g></g><g fill="#d32f23" fill-opacity="0.4196"><g transform="translate(76.180344, 21.162623)"><g><path d="M 8 -15.6875 C 8.019531 -15.757812 8.054688 -15.820312 8.109375 -15.875 C 8.160156 -15.925781 8.222656 -15.953125 8.296875 -15.953125 L 10.890625 -15.953125 C 10.972656 -15.953125 11.035156 -15.925781 11.078125 -15.875 C 11.117188 -15.820312 11.132812 -15.757812 11.125 -15.6875 L 9.234375 -0.28125 C 9.210938 -0.195312 9.175781 -0.128906 9.125 -0.078125 C 9.070312 -0.0234375 9.007812 0 8.9375 0 L 6.34375 0 C 6.257812 0 6.195312 -0.0234375 6.15625 -0.078125 C 6.113281 -0.128906 6.097656 -0.195312 6.109375 -0.28125 L 6.890625 -6.5 C 6.890625 -6.570312 6.859375 -6.609375 6.796875 -6.609375 L 4.578125 -6.609375 C 4.492188 -6.609375 4.453125 -6.570312 4.453125 -6.5 L 3.6875 -0.28125 C 3.675781 -0.195312 3.640625 -0.128906 3.578125 -0.078125 C 3.515625 -0.0234375 3.445312 0 3.375 0 L 0.796875 0 C 0.722656 0 0.660156 -0.0234375 0.609375 -0.078125 C 0.566406 -0.128906 0.550781 -0.195312 0.5625 -0.28125 L 2.46875 -15.6875 C 2.476562 -15.757812 2.507812 -15.820312 2.5625 -15.875 C 2.613281 -15.925781 2.679688 -15.953125 2.765625 -15.953125 L 5.328125 -15.953125 C 5.492188 -15.953125 5.578125 -15.863281 5.578125 -15.6875 L 4.8125 -9.484375 C 4.8125 -9.410156 4.84375 -9.375 4.90625 -9.375 L 7.109375 -9.375 C 7.171875 -9.375 7.21875 -9.410156 7.25 -9.484375 Z M 8 -15.6875 "/></g></g></g><g fill="#d32f23" fill-opacity="0.4196"><g transform="translate(86.798874, 21.162623)"><g><path d="M 10.296875 -13.46875 C 10.285156 -13.394531 10.253906 -13.332031 10.203125 -13.28125 C 10.148438 -13.226562 10.085938 -13.203125 10.015625 -13.203125 L 5.375 -13.203125 C 5.300781 -13.203125 5.265625 -13.160156 5.265625 -13.078125 L 4.8125 -9.484375 C 4.8125 -9.410156 4.84375 -9.375 4.90625 -9.375 L 7.5625 -9.375 C 7.644531 -9.375 7.707031 -9.34375 7.75 -9.28125 C 7.789062 -9.226562 7.804688 -9.164062 7.796875 -9.09375 L 7.515625 -6.890625 C 7.503906 -6.804688 7.472656 -6.738281 7.421875 -6.6875 C 7.367188 -6.632812 7.304688 -6.609375 7.234375 -6.609375 L 4.578125 -6.609375 C 4.492188 -6.609375 4.453125 -6.570312 4.453125 -6.5 L 4.015625 -2.875 C 3.984375 -2.800781 4.015625 -2.765625 4.109375 -2.765625 L 8.703125 -2.765625 C 8.785156 -2.765625 8.851562 -2.734375 8.90625 -2.671875 C 8.957031 -2.617188 8.972656 -2.554688 8.953125 -2.484375 L 8.6875 -0.28125 C 8.664062 -0.195312 8.628906 -0.128906 8.578125 -0.078125 C 8.523438 -0.0234375 8.460938 0 8.390625 0 L 0.796875 0 C 0.722656 0 0.660156 -0.0234375 0.609375 -0.078125 C 0.566406 -0.128906 0.550781 -0.195312 0.5625 -0.28125 L 2.46875 -15.6875 C 2.476562 -15.757812 2.507812 -15.820312 2.5625 -15.875 C 2.613281 -15.925781 2.679688 -15.953125 2.765625 -15.953125 L 10.34375 -15.953125 C 10.425781 -15.953125 10.488281 -15.925781 10.53125 -15.875 C 10.570312 -15.820312 10.585938 -15.757812 10.578125 -15.6875 Z M 10.296875 -13.46875 "/></g></g></g><g fill="#d32f23" fill-opacity="0.4196"><g transform="translate(96.483155, 21.162623)"><g><path d="M 6.640625 0 C 6.484375 0 6.390625 -0.078125 6.359375 -0.234375 L 5.421875 -6.515625 C 5.390625 -6.578125 5.351562 -6.609375 5.3125 -6.609375 L 4.578125 -6.609375 C 4.492188 -6.609375 4.453125 -6.570312 4.453125 -6.5 L 3.6875 -0.28125 C 3.675781 -0.195312 3.640625 -0.128906 3.578125 -0.078125 C 3.515625 -0.0234375 3.445312 0 3.375 0 L 0.796875 0 C 0.722656 0 0.660156 -0.0234375 0.609375 -0.078125 C 0.566406 -0.128906 0.550781 -0.195312 0.5625 -0.28125 L 2.46875 -15.6875 C 2.476562 -15.757812 2.507812 -15.820312 2.5625 -15.875 C 2.613281 -15.925781 2.679688 -15.953125 2.765625 -15.953125 L 7.234375 -15.953125 C 8.328125 -15.953125 9.195312 -15.59375 9.84375 -14.875 C 10.5 -14.15625 10.828125 -13.191406 10.828125 -11.984375 C 10.828125 -11.617188 10.8125 -11.335938 10.78125 -11.140625 C 10.675781 -10.265625 10.414062 -9.476562 10 -8.78125 C 9.582031 -8.09375 9.050781 -7.5625 8.40625 -7.1875 C 8.375 -7.164062 8.351562 -7.144531 8.34375 -7.125 C 8.332031 -7.101562 8.332031 -7.078125 8.34375 -7.046875 L 9.546875 -0.3125 L 9.546875 -0.28125 C 9.546875 -0.195312 9.519531 -0.128906 9.46875 -0.078125 C 9.414062 -0.0234375 9.351562 0 9.28125 0 Z M 5.375 -13.203125 C 5.300781 -13.203125 5.265625 -13.160156 5.265625 -13.078125 L 4.78125 -9.1875 C 4.75 -9.113281 4.78125 -9.078125 4.875 -9.078125 L 5.859375 -9.078125 C 6.378906 -9.078125 6.8125 -9.300781 7.15625 -9.75 C 7.507812 -10.207031 7.6875 -10.8125 7.6875 -11.5625 C 7.6875 -12.0625 7.566406 -12.457031 7.328125 -12.75 C 7.085938 -13.050781 6.773438 -13.203125 6.390625 -13.203125 Z M 5.375 -13.203125 "/></g></g></g><g fill="#ff3131" fill-opacity="1"><g transform="translate(34.760183, 20.552316)"><g><path d="M 9.96875 -4.484375 C 9.8125 -3.046875 9.269531 -1.9375 8.34375 -1.15625 C 7.425781 -0.382812 6.300781 0 4.96875 0 L 0.796875 0 C 0.722656 0 0.660156 -0.0234375 0.609375 -0.078125 C 0.566406 -0.128906 0.550781 -0.195312 0.5625 -0.28125 L 2.46875 -15.6875 C 2.476562 -15.757812 2.507812 -15.820312 2.5625 -15.875 C 2.613281 -15.925781 2.679688 -15.953125 2.765625 -15.953125 L 6.453125 -15.953125 C 7.785156 -15.953125 8.820312 -15.648438 9.5625 -15.046875 C 10.300781 -14.453125 10.671875 -13.5625 10.671875 -12.375 C 10.671875 -12.226562 10.65625 -11.972656 10.625 -11.609375 C 10.4375 -10.117188 9.796875 -9.023438 8.703125 -8.328125 C 8.648438 -8.273438 8.644531 -8.226562 8.6875 -8.1875 C 9.570312 -7.488281 10.015625 -6.492188 10.015625 -5.203125 C 10.015625 -5.066406 10 -4.828125 9.96875 -4.484375 Z M 5.375 -13.203125 C 5.300781 -13.203125 5.265625 -13.160156 5.265625 -13.078125 L 4.8125 -9.5 C 4.8125 -9.425781 4.84375 -9.390625 4.90625 -9.390625 L 5.703125 -9.390625 C 6.273438 -9.390625 6.722656 -9.59375 7.046875 -10 C 7.378906 -10.414062 7.546875 -10.988281 7.546875 -11.71875 C 7.546875 -12.207031 7.425781 -12.578125 7.1875 -12.828125 C 6.957031 -13.078125 6.617188 -13.203125 6.171875 -13.203125 Z M 5.078125 -2.78125 C 5.566406 -2.78125 5.96875 -2.960938 6.28125 -3.328125 C 6.601562 -3.691406 6.8125 -4.207031 6.90625 -4.875 C 6.925781 -4.976562 6.9375 -5.140625 6.9375 -5.359375 C 6.9375 -5.890625 6.820312 -6.304688 6.59375 -6.609375 C 6.363281 -6.910156 6.039062 -7.0625 5.625 -7.0625 L 4.625 -7.0625 C 4.5625 -7.0625 4.515625 -7.023438 4.484375 -6.953125 L 4.015625 -2.890625 C 3.984375 -2.816406 4.015625 -2.78125 4.109375 -2.78125 Z M 5.078125 -2.78125 "/></g></g></g><g fill="#ff3131" fill-opacity="1"><g transform="translate(45.150853, 20.552316)"><g><path d="M 10.296875 -13.46875 C 10.285156 -13.394531 10.253906 -13.332031 10.203125 -13.28125 C 10.148438 -13.226562 10.085938 -13.203125 10.015625 -13.203125 L 5.375 -13.203125 C 5.300781 -13.203125 5.265625 -13.160156 5.265625 -13.078125 L 4.8125 -9.484375 C 4.8125 -9.410156 4.84375 -9.375 4.90625 -9.375 L 7.5625 -9.375 C 7.644531 -9.375 7.707031 -9.34375 7.75 -9.28125 C 7.789062 -9.226562 7.804688 -9.164062 7.796875 -9.09375 L 7.515625 -6.890625 C 7.503906 -6.804688 7.472656 -6.738281 7.421875 -6.6875 C 7.367188 -6.632812 7.304688 -6.609375 7.234375 -6.609375 L 4.578125 -6.609375 C 4.492188 -6.609375 4.453125 -6.570312 4.453125 -6.5 L 4.015625 -2.875 C 3.984375 -2.800781 4.015625 -2.765625 4.109375 -2.765625 L 8.703125 -2.765625 C 8.785156 -2.765625 8.851562 -2.734375 8.90625 -2.671875 C 8.957031 -2.617188 8.972656 -2.554688 8.953125 -2.484375 L 8.6875 -0.28125 C 8.664062 -0.195312 8.628906 -0.128906 8.578125 -0.078125 C 8.523438 -0.0234375 8.460938 0 8.390625 0 L 0.796875 0 C 0.722656 0 0.660156 -0.0234375 0.609375 -0.078125 C 0.566406 -0.128906 0.550781 -0.195312 0.5625 -0.28125 L 2.46875 -15.6875 C 2.476562 -15.757812 2.507812 -15.820312 2.5625 -15.875 C 2.613281 -15.925781 2.679688 -15.953125 2.765625 -15.953125 L 10.34375 -15.953125 C 10.425781 -15.953125 10.488281 -15.925781 10.53125 -15.875 C 10.570312 -15.820312 10.585938 -15.757812 10.578125 -15.6875 Z M 10.296875 -13.46875 "/></g></g></g><g fill="#ff3131" fill-opacity="1"><g transform="translate(54.835134, 20.552316)"><g><path d="M 0.796875 0 C 0.722656 0 0.660156 -0.0234375 0.609375 -0.078125 C 0.566406 -0.128906 0.550781 -0.195312 0.5625 -0.28125 L 2.46875 -15.6875 C 2.476562 -15.757812 2.507812 -15.820312 2.5625 -15.875 C 2.613281 -15.925781 2.679688 -15.953125 2.765625 -15.953125 L 5.328125 -15.953125 C 5.492188 -15.953125 5.578125 -15.863281 5.578125 -15.6875 L 4.875 -9.9375 C 4.863281 -9.875 4.875 -9.835938 4.90625 -9.828125 C 4.945312 -9.828125 4.976562 -9.859375 5 -9.921875 L 8.578125 -15.75 C 8.648438 -15.882812 8.757812 -15.953125 8.90625 -15.953125 L 11.65625 -15.953125 C 11.757812 -15.953125 11.828125 -15.925781 11.859375 -15.875 C 11.890625 -15.820312 11.875 -15.742188 11.8125 -15.640625 L 7.734375 -9.078125 C 7.710938 -9.054688 7.695312 -9.035156 7.6875 -9.015625 C 7.6875 -8.992188 7.6875 -8.96875 7.6875 -8.9375 L 10.09375 -0.3125 L 10.125 -0.234375 C 10.125 -0.078125 10.039062 0 9.875 0 L 7.09375 0 C 6.9375 0 6.84375 -0.0664062 6.8125 -0.203125 L 5.25 -6.171875 C 5.25 -6.222656 5.226562 -6.242188 5.1875 -6.234375 C 5.144531 -6.222656 5.109375 -6.203125 5.078125 -6.171875 L 4.3125 -5 C 4.289062 -4.976562 4.269531 -4.957031 4.25 -4.9375 C 4.238281 -4.914062 4.234375 -4.890625 4.234375 -4.859375 L 3.6875 -0.28125 C 3.675781 -0.195312 3.640625 -0.128906 3.578125 -0.078125 C 3.515625 -0.0234375 3.445312 0 3.375 0 Z M 0.796875 0 "/></g></g></g><g fill="#ff3131" fill-opacity="1"><g transform="translate(65.681524, 20.552316)"><g><path d="M 4.484375 0.1875 C 3.316406 0.1875 2.382812 -0.140625 1.6875 -0.796875 C 1 -1.453125 0.65625 -2.3125 0.65625 -3.375 C 0.65625 -3.507812 0.671875 -3.710938 0.703125 -3.984375 L 0.796875 -4.65625 C 0.816406 -4.726562 0.851562 -4.789062 0.90625 -4.84375 C 0.957031 -4.894531 1.019531 -4.921875 1.09375 -4.921875 L 3.625 -4.921875 C 3.789062 -4.921875 3.875 -4.832031 3.875 -4.65625 L 3.8125 -4.15625 C 3.789062 -4.09375 3.78125 -4 3.78125 -3.875 C 3.78125 -3.476562 3.878906 -3.160156 4.078125 -2.921875 C 4.273438 -2.691406 4.535156 -2.578125 4.859375 -2.578125 C 5.253906 -2.578125 5.59375 -2.738281 5.875 -3.0625 C 6.15625 -3.394531 6.296875 -3.800781 6.296875 -4.28125 C 6.296875 -4.675781 6.164062 -5.023438 5.90625 -5.328125 C 5.644531 -5.640625 5.148438 -6.085938 4.421875 -6.671875 C 3.816406 -7.160156 3.320312 -7.597656 2.9375 -7.984375 C 2.5625 -8.378906 2.238281 -8.84375 1.96875 -9.375 C 1.707031 -9.914062 1.578125 -10.535156 1.578125 -11.234375 C 1.578125 -12.191406 1.785156 -13.039062 2.203125 -13.78125 C 2.617188 -14.53125 3.191406 -15.109375 3.921875 -15.515625 C 4.660156 -15.929688 5.488281 -16.140625 6.40625 -16.140625 C 7.570312 -16.140625 8.5 -15.800781 9.1875 -15.125 C 9.882812 -14.445312 10.234375 -13.546875 10.234375 -12.421875 C 10.234375 -12.285156 10.21875 -12.066406 10.1875 -11.765625 L 10.125 -11.21875 C 10.101562 -11.144531 10.0625 -11.078125 10 -11.015625 C 9.945312 -10.960938 9.878906 -10.9375 9.796875 -10.9375 L 7.265625 -10.9375 C 7.191406 -10.9375 7.128906 -10.960938 7.078125 -11.015625 C 7.035156 -11.078125 7.023438 -11.144531 7.046875 -11.21875 L 7.109375 -11.828125 C 7.128906 -11.890625 7.140625 -11.988281 7.140625 -12.125 C 7.140625 -12.507812 7.039062 -12.8125 6.84375 -13.03125 C 6.65625 -13.257812 6.394531 -13.375 6.0625 -13.375 C 5.664062 -13.375 5.332031 -13.210938 5.0625 -12.890625 C 4.800781 -12.566406 4.671875 -12.128906 4.671875 -11.578125 C 4.671875 -11.210938 4.796875 -10.863281 5.046875 -10.53125 C 5.296875 -10.207031 5.753906 -9.765625 6.421875 -9.203125 C 7.179688 -8.566406 7.753906 -8.054688 8.140625 -7.671875 C 8.535156 -7.285156 8.847656 -6.863281 9.078125 -6.40625 C 9.304688 -5.945312 9.421875 -5.421875 9.421875 -4.828125 C 9.421875 -4.710938 9.40625 -4.5 9.375 -4.1875 C 9.207031 -2.851562 8.671875 -1.789062 7.765625 -1 C 6.867188 -0.207031 5.773438 0.1875 4.484375 0.1875 Z M 4.484375 0.1875 "/></g></g></g><g fill="#ff3131" fill-opacity="1"><g transform="translate(75.50253, 20.552316)"><g><path d="M 8 -15.6875 C 8.019531 -15.757812 8.054688 -15.820312 8.109375 -15.875 C 8.160156 -15.925781 8.222656 -15.953125 8.296875 -15.953125 L 10.890625 -15.953125 C 10.972656 -15.953125 11.035156 -15.925781 11.078125 -15.875 C 11.117188 -15.820312 11.132812 -15.757812 11.125 -15.6875 L 9.234375 -0.28125 C 9.210938 -0.195312 9.175781 -0.128906 9.125 -0.078125 C 9.070312 -0.0234375 9.007812 0 8.9375 0 L 6.34375 0 C 6.257812 0 6.195312 -0.0234375 6.15625 -0.078125 C 6.113281 -0.128906 6.097656 -0.195312 6.109375 -0.28125 L 6.890625 -6.5 C 6.890625 -6.570312 6.859375 -6.609375 6.796875 -6.609375 L 4.578125 -6.609375 C 4.492188 -6.609375 4.453125 -6.570312 4.453125 -6.5 L 3.6875 -0.28125 C 3.675781 -0.195312 3.640625 -0.128906 3.578125 -0.078125 C 3.515625 -0.0234375 3.445312 0 3.375 0 L 0.796875 0 C 0.722656 0 0.660156 -0.0234375 0.609375 -0.078125 C 0.566406 -0.128906 0.550781 -0.195312 0.5625 -0.28125 L 2.46875 -15.6875 C 2.476562 -15.757812 2.507812 -15.820312 2.5625 -15.875 C 2.613281 -15.925781 2.679688 -15.953125 2.765625 -15.953125 L 5.328125 -15.953125 C 5.492188 -15.953125 5.578125 -15.863281 5.578125 -15.6875 L 4.8125 -9.484375 C 4.8125 -9.410156 4.84375 -9.375 4.90625 -9.375 L 7.109375 -9.375 C 7.171875 -9.375 7.21875 -9.410156 7.25 -9.484375 Z M 8 -15.6875 "/></g></g></g><g fill="#ff3131" fill-opacity="1"><g transform="translate(86.121059, 20.552316)"><g><path d="M 10.296875 -13.46875 C 10.285156 -13.394531 10.253906 -13.332031 10.203125 -13.28125 C 10.148438 -13.226562 10.085938 -13.203125 10.015625 -13.203125 L 5.375 -13.203125 C 5.300781 -13.203125 5.265625 -13.160156 5.265625 -13.078125 L 4.8125 -9.484375 C 4.8125 -9.410156 4.84375 -9.375 4.90625 -9.375 L 7.5625 -9.375 C 7.644531 -9.375 7.707031 -9.34375 7.75 -9.28125 C 7.789062 -9.226562 7.804688 -9.164062 7.796875 -9.09375 L 7.515625 -6.890625 C 7.503906 -6.804688 7.472656 -6.738281 7.421875 -6.6875 C 7.367188 -6.632812 7.304688 -6.609375 7.234375 -6.609375 L 4.578125 -6.609375 C 4.492188 -6.609375 4.453125 -6.570312 4.453125 -6.5 L 4.015625 -2.875 C 3.984375 -2.800781 4.015625 -2.765625 4.109375 -2.765625 L 8.703125 -2.765625 C 8.785156 -2.765625 8.851562 -2.734375 8.90625 -2.671875 C 8.957031 -2.617188 8.972656 -2.554688 8.953125 -2.484375 L 8.6875 -0.28125 C 8.664062 -0.195312 8.628906 -0.128906 8.578125 -0.078125 C 8.523438 -0.0234375 8.460938 0 8.390625 0 L 0.796875 0 C 0.722656 0 0.660156 -0.0234375 0.609375 -0.078125 C 0.566406 -0.128906 0.550781 -0.195312 0.5625 -0.28125 L 2.46875 -15.6875 C 2.476562 -15.757812 2.507812 -15.820312 2.5625 -15.875 C 2.613281 -15.925781 2.679688 -15.953125 2.765625 -15.953125 L 10.34375 -15.953125 C 10.425781 -15.953125 10.488281 -15.925781 10.53125 -15.875 C 10.570312 -15.820312 10.585938 -15.757812 10.578125 -15.6875 Z M 10.296875 -13.46875 "/></g></g></g><g fill="#ff3131" fill-opacity="1"><g transform="translate(95.80534, 20.552316)"><g><path d="M 6.640625 0 C 6.484375 0 6.390625 -0.078125 6.359375 -0.234375 L 5.421875 -6.515625 C 5.390625 -6.578125 5.351562 -6.609375 5.3125 -6.609375 L 4.578125 -6.609375 C 4.492188 -6.609375 4.453125 -6.570312 4.453125 -6.5 L 3.6875 -0.28125 C 3.675781 -0.195312 3.640625 -0.128906 3.578125 -0.078125 C 3.515625 -0.0234375 3.445312 0 3.375 0 L 0.796875 0 C 0.722656 0 0.660156 -0.0234375 0.609375 -0.078125 C 0.566406 -0.128906 0.550781 -0.195312 0.5625 -0.28125 L 2.46875 -15.6875 C 2.476562 -15.757812 2.507812 -15.820312 2.5625 -15.875 C 2.613281 -15.925781 2.679688 -15.953125 2.765625 -15.953125 L 7.234375 -15.953125 C 8.328125 -15.953125 9.195312 -15.59375 9.84375 -14.875 C 10.5 -14.15625 10.828125 -13.191406 10.828125 -11.984375 C 10.828125 -11.617188 10.8125 -11.335938 10.78125 -11.140625 C 10.675781 -10.265625 10.414062 -9.476562 10 -8.78125 C 9.582031 -8.09375 9.050781 -7.5625 8.40625 -7.1875 C 8.375 -7.164062 8.351562 -7.144531 8.34375 -7.125 C 8.332031 -7.101562 8.332031 -7.078125 8.34375 -7.046875 L 9.546875 -0.3125 L 9.546875 -0.28125 C 9.546875 -0.195312 9.519531 -0.128906 9.46875 -0.078125 C 9.414062 -0.0234375 9.351562 0 9.28125 0 Z M 5.375 -13.203125 C 5.300781 -13.203125 5.265625 -13.160156 5.265625 -13.078125 L 4.78125 -9.1875 C 4.75 -9.113281 4.78125 -9.078125 4.875 -9.078125 L 5.859375 -9.078125 C 6.378906 -9.078125 6.8125 -9.300781 7.15625 -9.75 C 7.507812 -10.207031 7.6875 -10.8125 7.6875 -11.5625 C 7.6875 -12.0625 7.566406 -12.457031 7.328125 -12.75 C 7.085938 -13.050781 6.773438 -13.203125 6.390625 -13.203125 Z M 5.375 -13.203125 "/></g></g></g><g clip-path="url(#c755e4633f)"><path fill="#000000" d="M 20.945312 17.167969 L 26.558594 17.167969 C 26.796875 17.203125 26.851562 17.445312 26.742188 17.71875 C 26.511719 18.289062 25.917969 18.675781 25.3125 18.675781 L 22.191406 18.675781 C 21.589844 18.675781 20.996094 18.289062 20.765625 17.71875 C 20.652344 17.445312 20.707031 17.167969 20.945312 17.167969 Z M 16.863281 16.574219 C 17 16.574219 17.167969 16.589844 17.367188 16.628906 C 18.164062 16.765625 19.011719 16.96875 19.386719 17.933594 C 19.585938 18.449219 19.441406 18.796875 18.863281 18.710938 C 18.261719 18.617188 17.132812 18.472656 16.597656 18.273438 C 15.941406 18.03125 16.078125 17.289062 16.195312 16.917969 C 16.265625 16.703125 16.441406 16.570312 16.863281 16.574219 Z M 23.753906 7.675781 C 21.707031 7.675781 20.449219 7.710938 19.511719 7.964844 C 18.710938 8.183594 18.304688 8.84375 18.113281 9.335938 L 16.636719 13.257812 L 15.484375 13.257812 C 15.019531 13.257812 14.789062 13.484375 14.789062 13.863281 C 14.785156 14.375 15.019531 14.847656 15.660156 15.183594 L 15.492188 15.492188 C 15.265625 15.929688 15.101562 16.390625 15.101562 16.804688 L 15.101562 20.1875 C 15.101562 20.753906 15.488281 21.230469 15.933594 21.410156 L 15.933594 22.683594 C 15.933594 22.996094 16.179688 23.242188 16.480469 23.242188 L 18.039062 23.242188 C 18.339844 23.242188 18.585938 22.996094 18.585938 22.683594 L 18.585938 21.488281 L 27.464844 21.488281 L 27.847656 13.855469 C 26.628906 13.941406 25.164062 14.027344 23.753906 14.027344 C 21.503906 14.027344 19.039062 13.808594 17.820312 13.714844 L 19.242188 9.746094 C 19.320312 9.523438 19.527344 9.21875 19.820312 9.140625 C 20.503906 8.953125 21.722656 8.894531 23.753906 8.894531 C 24.433594 8.894531 24.996094 8.902344 25.503906 8.921875 C 25.539062 8.503906 25.625 8.097656 25.761719 7.703125 C 25.1875 7.683594 24.527344 7.675781 23.753906 7.675781 Z M 23.753906 7.675781 " fill-opacity="1" fill-rule="evenodd"/></g><g clip-path="url(#2a82b522e7)"><path fill="#000000" d="M 30.507812 20.269531 C 30.917969 20.269531 31.25 20.605469 31.25 21.023438 C 31.25 21.445312 30.917969 21.78125 30.507812 21.78125 C 30.09375 21.78125 29.761719 21.445312 29.761719 21.023438 C 29.761719 20.605469 30.09375 20.269531 30.507812 20.269531 Z M 29.089844 5.910156 C 27.609375 6.5 26.636719 7.953125 26.636719 9.574219 C 26.636719 11.117188 27.527344 12.515625 28.90625 13.152344 L 28.492188 21.417969 C 28.441406 22.488281 29.636719 23.191406 30.507812 23.191406 C 31.371094 23.191406 32.570312 22.488281 32.515625 21.417969 L 32.105469 13.152344 C 33.484375 12.515625 34.375 11.117188 34.375 9.574219 C 34.375 7.957031 33.402344 6.503906 31.921875 5.914062 L 31.921875 9.140625 L 30.507812 9.949219 L 29.089844 9.140625 Z M 29.089844 5.910156 " fill-opacity="1" fill-rule="evenodd"/></g></svg>